<svg height="512" viewBox="0 0 64 64" width="512" xmlns="http://www.w3.org/2000/svg"><g id="Electric_Motor-electronics" data-name="Electric Motor-electronics"><path d="m18 19h33v27h-33z" fill="#898890"/><path d="m3 29h8v6h-8z" fill="#e0e0e2"/><path d="m22 46h24v4h-24z" fill="#57565c"/><path d="m17 50h34v4h-34z" fill="#2d2d30"/><path d="m61 23v19a4 4 0 0 1 -4 4h-6v-27h6a4 4 0 0 1 4 4z" fill="#5aaae7"/><path d="m18 19v27h-5a2.006 2.006 0 0 1 -2-2v-23a2.006 2.006 0 0 1 2-2z" fill="#5aaae7"/><path d="m23 22h23v3h-23z" fill="#cca400"/><path d="m23 25h23v3h-23z" fill="#ffda44"/><path d="m23 39h23v3h-23z" fill="#cca400"/><path d="m23 36h23v3h-23z" fill="#ffda44"/><path d="m23 28h23v8h-23z" fill="#ffeb99"/><path d="m24 15h10v4h-10z" fill="#3e3d42"/><path d="m20 7h18v8h-18z" fill="#2488ff"/><path d="m31 4h4v3h-4z" fill="#ffda44"/><path d="m23 4h4v3h-4z" fill="#d80027"/><path d="m57 18h-22v-2h3a1 1 0 0 0 1-1v-8a1 1 0 0 0 -1-1h-2v-2a1 1 0 0 0 -1-1h-4a1 1 0 0 0 -1 1v2h-2v-2a1 1 0 0 0 -1-1h-4a1 1 0 0 0 -1 1v2h-2a1 1 0 0 0 -1 1v8a1 1 0 0 0 1 1h3v2h-10a3 3 0 0 0 -3 3v7h-7a1 1 0 0 0 -1 1v6a1 1 0 0 0 1 1h7v8a3 3 0 0 0 3 3h8v2h-4a1 1 0 0 0 -1 1v4a1 1 0 0 0 1 1h34a1 1 0 0 0 1-1v-4a1 1 0 0 0 -1-1h-4v-2h10a5.006 5.006 0 0 0 5-5v-19a5.006 5.006 0 0 0 -5-5zm-7 27h-31v-25h31zm-18-40h2v1h-2zm-8 0h2v1h-2zm-3 3h16v6h-16zm4 8h8v2h-8zm-21 18v-4h6v4zm12 11h-3a1 1 0 0 1 -1-1v-23a1 1 0 0 1 1-1h4v25zm34 8h-32v-2h32zm-5-4h-22v-2h22zm15-7a3 3 0 0 1 -3 3h-5v-25h5a3 3 0 0 1 3 3z"/><path d="m54 23h4v2h-4z"/><path d="m54 27h4v2h-4z"/><path d="m22 22v20a1 1 0 0 0 1 1h23a1 1 0 0 0 1-1v-20a1 1 0 0 0 -1-1h-23a1 1 0 0 0 -1 1zm2 7h21v6h-21zm0 8h21v1h-21zm21-10h-21v-1h21zm-21 14v-1h21v1zm21-18v1h-21v-1z"/></g></svg>